<?xml version="1.0" encoding="UTF-8"?>
<svg width="42px" height="30px" viewBox="0 0 42 30" version="1.1" xmlns="http://www.w3.org/2000/svg" xmlns:xlink="http://www.w3.org/1999/xlink">
    <!-- Generator: Sketch 50.2 (55047) - http://www.bohemiancoding.com/sketch -->
    <title>Shape</title>
    <desc>Created with Sketch.</desc>
    <defs></defs>
    <g id="Page-1" stroke="none" stroke-width="1" fill="none" fill-rule="evenodd">
        <g id="Custom-Preset-2" transform="translate(-575.000000, -265.000000)" fill="#3366FF" fill-rule="nonzero">
            <path d="M614.666667,265 C613.3782,265 612.333333,266.033385 612.333333,267.307692 C612.333333,267.431385 612.351067,267.550462 612.3702,267.669077 L607.007733,270.320615 C606.583533,269.887231 605.9918,269.615385 605.333333,269.615385 C604.044867,269.615385 603,270.648769 603,271.923077 C603,272.47 603.200667,272.966154 603.5222,273.361692 L596.646333,283.562615 C596.4396,283.503077 596.225867,283.461538 596,283.461538 C595.611267,283.461538 595.250533,283.564462 594.928533,283.730615 L588.727933,277.598154 C588.895933,277.279692 589,276.922923 589,276.538462 C589,275.264154 587.955133,274.230769 586.666667,274.230769 C585.3782,274.230769 584.333333,275.264154 584.333333,276.538462 C584.333333,277.143077 584.573667,277.688615 584.9582,278.099846 L577.828933,290.439077 C577.668867,290.404923 577.503667,290.384615 577.333333,290.384615 C576.044867,290.384615 575,291.418 575,292.692308 C575,293.966615 576.044867,295 577.333333,295 C578.6218,295 579.666667,293.966615 579.666667,292.692308 C579.666667,292.087692 579.426333,291.542154 579.0418,291.130923 L586.171067,278.791692 C586.331133,278.825846 586.496333,278.846154 586.666667,278.846154 C587.0554,278.846154 587.416133,278.743231 587.738133,278.577077 L593.938733,284.709538 C593.770733,285.028 593.666667,285.384769 593.666667,285.769231 C593.666667,287.043538 594.711533,288.076923 596,288.076923 C597.288467,288.076923 598.333333,287.043538 598.333333,285.769231 C598.333333,285.222308 598.132667,284.726154 597.811133,284.330615 L604.687,274.129692 C604.893733,274.189231 605.107467,274.230769 605.333333,274.230769 C606.6218,274.230769 607.666667,273.197385 607.666667,271.923077 C607.666667,271.799385 607.648933,271.680308 607.6298,271.561692 L612.992267,268.910154 C613.416467,269.343538 614.0082,269.615385 614.666667,269.615385 C615.955133,269.615385 617,268.582 617,267.307692 C617,266.033385 615.955133,265 614.666667,265 Z" id="Shape"></path>
        </g>
    </g>
</svg>