<?xml version="1.0" encoding="utf-8"?>
<!-- Generator: Adobe Illustrator 19.1.0, SVG Export Plug-In . SVG Version: 6.00 Build 0)  -->
<!DOCTYPE svg PUBLIC "-//W3C//DTD SVG 1.1//EN" "http://www.w3.org/Graphics/SVG/1.1/DTD/svg11.dtd">
<svg version="1.1" id="Layer_1" xmlns="http://www.w3.org/2000/svg" xmlns:xlink="http://www.w3.org/1999/xlink" x="0px" y="0px"
	 width="38px" height="38px" viewBox="0 0 38 38" style="enable-background:new 0 0 38 38;" xml:space="preserve">
<style type="text/css">
	.st0{fill:#F99D29;}
	.st1{fill:#FBCCCC;}
	.st2{fill:none;}
	.st3{fill:#CD3F41;}
	.st4{fill:none;stroke:#D3D3CE;stroke-width:0.9737;stroke-miterlimit:10;}
	.st5{fill:#EC0000;}
	.st6{fill:#FFFFFF;}
	.st7{fill:#387711;}
</style>
<circle class="st6" cx="19" cy="19" r="19"/>
<g>
	<path class="st1" d="M17.8295,20.0535l-0.3396-5.0959c-0.0643-0.9925-0.0956-1.7047-0.0956-2.1366
		c0-0.5886,0.1533-1.0485,0.4633-1.3783c0.3083-0.3297,0.7139-0.4946,1.2167-0.4946c0.61,0,1.0172,0.211,1.2233,0.6331
		c0.2061,0.4221,0.3083,1.0304,0.3083,1.8234c0,0.4682-0.0247,0.9447-0.0742,1.4261l-0.4567,5.2443
		c-0.0495,0.6232-0.1566,1.1029-0.3198,1.436c-0.1632,0.333-0.4319,0.4995-0.8078,0.4995c-0.3825,0-0.6496-0.1616-0.7979-0.4831
		C18.0009,21.2042,17.8938,20.7129,17.8295,20.0535z M19.0115,27.052c-0.4336,0-0.8111-0.1401-1.1343-0.4188
		c-0.3215-0.2803-0.4831-0.6726-0.4831-1.1755c0-0.4402,0.1533-0.8144,0.4633-1.1227c0.3083-0.3083,0.6858-0.4633,1.1326-0.4633
		s0.8276,0.155,1.1425,0.4633c0.3165,0.3083,0.4732,0.6825,0.4732,1.1227c0,0.4962-0.1583,0.8853-0.4781,1.1689
		S19.4369,27.052,19.0115,27.052z"/>
</g>
</svg>
