<?xml version="1.0" encoding="utf-8"?>
<!-- Generator: Adobe Illustrator 19.2.1, SVG Export Plug-In . SVG Version: 6.00 Build 0)  -->
<svg version="1.1" id="Layer_1" xmlns="http://www.w3.org/2000/svg" xmlns:xlink="http://www.w3.org/1999/xlink" x="0px" y="0px"
	 viewBox="0 0 27 27" style="enable-background:new 0 0 27 27;" xml:space="preserve">
<style type="text/css">
	.st0{fill:#EC0000;}
</style>
<path class="st0" d="M20.2,16.5c1-1.7,1.5-3.5,1.5-5.6c0-1.5-0.2-2.9-0.8-4.2s-1.5-2.5-2.5-3.5c-1-1-2.1-1.7-3.5-2.3
	c-1.2-0.6-2.7-0.8-4.2-0.8S7.7,0.3,6.4,0.9S4,2.2,3.1,3.2c-1,1-1.7,2.1-2.3,3.3C0.2,7.8,0,9.2,0,10.7s0.2,2.9,0.8,4.2
	s1.5,2.5,2.3,3.5c1,1,2.1,1.9,3.5,2.3c1.2,0.6,2.7,0.8,4.2,0.8c1,0,1.9-0.2,2.9-0.4c0.8-0.2,1.9-0.6,2.5-1l6.4,6.4
	c0.4,0.2,0.6,0.4,1,0.4c0.4,0,0.8-0.2,1.2-0.4l1.7-1.7c0.6-0.6,0.4-1.5-0.2-2.1L20.2,16.5L20.2,16.5z M4.2,7.8
	C4.6,6.9,5,6.1,5.8,5.5c0.6-0.6,1.5-1.2,2.3-1.7S10,3.2,11,3.2s1.9,0.2,2.9,0.6c0.8,0.4,1.7,1,2.5,1.7c0.6,0.6,1.2,1.5,1.7,2.5
	c0.4,0.8,0.6,1.9,0.6,2.9s-0.2,2.1-0.6,2.9c-0.4,0.8-0.8,1.7-1.7,2.3c-0.6,0.6-1.5,1.2-2.3,1.7s-1.9,0.6-2.9,0.6s-1.9-0.2-2.9-0.6
	c-0.8-0.4-1.7-1-2.5-1.7c-0.8-0.6-1.2-1.5-1.7-2.5c-0.4-0.8-0.6-1.9-0.6-2.9C3.5,9.7,3.7,8.8,4.2,7.8L4.2,7.8z"/>
</svg>
