<?xml version="1.0" encoding="utf-8"?>
<!-- Generator: Adobe Illustrator 19.2.1, SVG Export Plug-In . SVG Version: 6.00 Build 0)  -->
<!DOCTYPE svg PUBLIC "-//W3C//DTD SVG 1.1//EN" "http://www.w3.org/Graphics/SVG/1.1/DTD/svg11.dtd">
<svg version="1.1" id="Layer_1" xmlns="http://www.w3.org/2000/svg" xmlns:xlink="http://www.w3.org/1999/xlink" x="0px" y="0px"
	 viewBox="-467 293 30 30" style="enable-background:new -467 293 30 30;" xml:space="preserve">
<style type="text/css">
	.st0{fill:#EC0000;}
</style>
<g>
	<path class="st0" d="M-461.18,314.09c0,0.36-0.29,0.66-0.64,0.66h-2.54c-0.35,0-0.64-0.3-0.64-0.66v-2.52
		c0-0.36,0.29-0.66,0.64-0.66h2.54c0.35,0,0.64,0.3,0.64,0.66V314.09z M-442.66,305h-20.99h-2.06c-0.71,0-1.28,0.59-1.28,1.32v13.86
		c0,0.73,0.57,1.32,1.28,1.32h23.06c0.71,0,1.28-0.59,1.28-1.32v-8.96v-4.9C-441.38,305.59-441.95,305-442.66,305"/>
	<path class="st0" d="M-443.06,296.28l-0.58-1.09c-0.34-0.64-1.12-0.87-1.74-0.52l-15.94,9.02h5.01L-443.06,296.28z"/>
	<path class="st0" d="M-437.16,307.33l-4.21-7.88l-7.58,4.24h6.29c1.41,0,2.56,1.18,2.56,2.64v4.17l2.44-1.38
		C-437.04,308.77-436.82,307.97-437.16,307.33"/>
</g>
</svg>
