<?xml version="1.0" encoding="utf-8"?>
<!-- Generator: Adobe Illustrator 19.2.1, SVG Export Plug-In . SVG Version: 6.00 Build 0)  -->
<svg version="1.1" id="Layer_1" xmlns="http://www.w3.org/2000/svg" xmlns:xlink="http://www.w3.org/1999/xlink" x="0px" y="0px"
	 viewBox="0 0 27 27" style="enable-background:new 0 0 27 27;" xml:space="preserve">
<style type="text/css">
	.st0{fill:#EC0000;}
</style>
<g>
	<path class="st0" d="M8.2,7c0-1.6,1.4-3.1,3.1-3.1h4.3c1.6,0,3.1,1.4,3.1,3.1v2.5h3.9V7c0-3.9-3.1-7-7-7h-4.3c-3.9,0.2-7,3.3-7,7
		v2.5h3.9V7L8.2,7z"/>
	<path class="st0" d="M13.6,14.2c1.4,0,2.7,1.2,2.7,2.9c0,1-1,2.1-1,2.1L15,19.6l1,5.2c0,0.2-0.2,0.4-0.4,0.4h-4.5
		c-0.2,0-0.4-0.2-0.4-0.4l0.8-4.7c0-0.2,0-0.6,0-0.8V19c0,0-1-1.2-1-2.1C10.9,15.5,12.2,14.2,13.6,14.2 M3.9,27h19.2
		c0.4,0,0.8-0.4,0.8-0.8V12.4c0-0.4-0.4-0.8-0.8-0.8H3.9c-0.4,0-0.8,0.4-0.8,0.8V26C3.1,26.6,3.5,27,3.9,27"/>
</g>
</svg>
