<?xml version="1.0" encoding="utf-8"?>
<!-- Generator: Adobe Illustrator 19.2.1, SVG Export Plug-In . SVG Version: 6.00 Build 0)  -->
<svg version="1.1" id="Layer_1" xmlns="http://www.w3.org/2000/svg" xmlns:xlink="http://www.w3.org/1999/xlink" x="0px" y="0px"
	 viewBox="0 0 50 50" style="enable-background:new 0 0 50 50;" xml:space="preserve">
<style type="text/css">
	.st0{fill:#EC0000;}
</style>
<g id="Layer_1_1_">
</g>
<g id="Layer_2">
	<path class="st0" d="M41.3,21.7c-0.6,0-1,0-1.6,0.1l-0.1-0.4c0,0-1.6-4.9-2.2-5.1c-0.6-0.1-0.9-0.7-0.4-0.7c0.4,0,1.4-0.3,1.4-2
		s-2.6-2.3-2.6-2.3s-8.4,0.1-9.6,0c-1.2-0.1-0.7,0.7-0.7,0.7l1.6,0.7c0,0,2.9,1.4,3.2,1.7c0.3,0.3,0,2.6,0,2.6s-4.6,0-6.2,0
		c-1.6,0-1.4,0.7-1.4,0.7s0,2,0,2.6s0.6,0.9,0.6,0.9s3.8,0,4.9,0c1.2,0,1,0.6,1,0.6l-2.3,7h-2c0,0-1.6-2.8-2-3.8
		c-0.4-1-1.4-1.2-1.4-1.2h-6.7c-0.7-0.6-1.4-1.2-2.3-1.6l0.6-1h8.3c0,0,0.1-0.4-0.3-1.3c-0.4-0.9-1.7-2.8-1.7-2.8S19,17,18,17
		S1.7,17.1,1.7,17.1s-0.4,0.3-0.4,0.7v3.5h3.5l0.6,1c-3,1.3-5.4,4.3-5.4,7.8c0,4.6,3.8,8.6,8.6,8.6s8.6-3.8,8.6-8.6
		c0-1.3-0.3-2.6-0.9-3.8l2.9,2c0,0,0,5.7,0,6.1c0,0.6,0.4,0.9,0.4,0.9s8.4,0,9.3,0c0.9,0,0.9-0.6,0.9-0.6v-5.1l3.2-7.1l2.3-1.9
		l1.2,2c0,0,0,0.1,0.1,0.3c-2.2,1.6-3.6,4.1-3.6,7c0,4.6,3.8,8.6,8.6,8.6c4.6,0,8.6-3.8,8.6-8.6S45.9,21.7,41.3,21.7z M8.6,36.2
		c-3.3,0-5.9-2.6-5.9-5.9c0-2.9,2.2-5.4,4.9-5.8c0.7,0.6,1.9,1.6,1.9,1.6L8,29.3c0,0-0.4,1.4,0.9,2c1.3,0.6,1.7-0.3,2.2-1.2
		c0.4-0.7,1.7-3.5,1.9-3.8c1,1,1.7,2.5,1.7,4.1C14.5,33.6,11.9,36.2,8.6,36.2z M41.3,36.2c-3.3,0-5.9-2.6-5.9-5.9
		c0-1.9,0.9-3.6,2.3-4.6c1,1.9,2.2,3.9,2.3,4.2c0.3,0.3,0.7,1.2,2,0.9c1.3-0.3,0.7-1.7,0.7-1.7l-1.9-4.5c0.1,0,0.3,0,0.6,0
		c3.3,0,5.9,2.6,5.9,5.9S44.5,36.2,41.3,36.2z"/>
</g>
</svg>
