<svg id="svg" version="1.1" xmlns="http://www.w3.org/2000/svg" xmlns:xlink="http://www.w3.org/1999/xlink" x="0px" y="0px"
	 viewBox="0 0 400 542" style="enable-background:new 0 0 50 50;" xml:space="preserve">
  <style type="text/css">
	.st0{fill:#EC0000;}
</style>
  <g id="svgg">
    <path class="st0" id="path0" d="M0.000 271.000 L 0.000 542.000 200.000 542.000 L 400.000 542.000 400.000 271.000 L 400.000 0.000 200.000 0.000 L 0.000 0.000 0.000 271.000 M353.000 104.500 L 353.000 158.000 200.000 158.000 L 47.000 158.000 47.000 104.500 L 47.000 51.000 200.000 51.000 L 353.000 51.000 353.000 104.500 M118.000 248.500 L 118.000 282.000 84.500 282.000 L 51.000 282.000 51.000 248.500 L 51.000 215.000 84.500 215.000 L 118.000 215.000 118.000 248.500 M229.000 248.500 L 229.000 282.000 195.500 282.000 L 162.000 282.000 162.000 248.500 L 162.000 215.000 195.500 215.000 L 229.000 215.000 229.000 248.500 M340.000 248.500 L 340.000 282.000 306.500 282.000 L 273.000 282.000 273.000 248.500 L 273.000 215.000 306.500 215.000 L 340.000 215.000 340.000 248.500 M118.000 355.500 L 118.000 389.000 84.500 389.000 L 51.000 389.000 51.000 355.500 L 51.000 322.000 84.500 322.000 L 118.000 322.000 118.000 355.500 M229.000 355.500 L 229.000 389.000 195.500 389.000 L 162.000 389.000 162.000 355.500 L 162.000 322.000 195.500 322.000 L 229.000 322.000 229.000 355.500 M340.000 408.500 L 340.000 495.000 306.500 495.000 L 273.000 495.000 273.000 408.500 L 273.000 322.000 306.500 322.000 L 340.000 322.000 340.000 408.500 M118.000 462.000 L 118.000 495.000 84.500 495.000 L 51.000 495.000 51.000 462.000 L 51.000 429.000 84.500 429.000 L 118.000 429.000 118.000 462.000 M229.000 462.000 L 229.000 495.000 195.500 495.000 L 162.000 495.000 162.000 462.000 L 162.000 429.000 195.500 429.000 L 229.000 429.000 229.000 462.000 " stroke="none" fill-rule="evenodd"></path>
  </g>
</svg>