<?xml version="1.0" encoding="utf-8"?>
<!-- Generator: Adobe Illustrator 19.2.1, SVG Export Plug-In . SVG Version: 6.00 Build 0)  -->
<svg version="1.1" id="Layer_1" xmlns="http://www.w3.org/2000/svg" xmlns:xlink="http://www.w3.org/1999/xlink" x="0px" y="0px"
	 viewBox="0 0 27 27" style="enable-background:new 0 0 27 27;" xml:space="preserve">
<style type="text/css">
	.st0{fill:#EC0000;}
</style>
<path class="st0" d="M10.6,9.7c0-0.3,0.3-0.6,0.6-0.6h4.6c0.3,0,0.6,0.3,0.6,0.6v16.7c0,0.3-0.3,0.6-0.6,0.6h-4.6
	c-0.3,0-0.6-0.3-0.6-0.6V9.7z M10.6,0.6c0-0.3,0.2-0.6,0.6-0.6h4.6c0.3,0,0.6,0.3,0.6,0.6v4.3c0,0.3-0.3,0.6-0.6,0.6h-4.6
	c-0.3,0-0.6-0.3-0.6-0.6V0.6z"/>
</svg>
