<?xml version="1.0" encoding="utf-8"?>
<!-- Generator: Adobe Illustrator 19.2.1, SVG Export Plug-In . SVG Version: 6.00 Build 0)  -->
<svg version="1.1" id="Layer_1" xmlns="http://www.w3.org/2000/svg" xmlns:xlink="http://www.w3.org/1999/xlink" x="0px" y="0px"
	 viewBox="0 0 50 50" style="enable-background:new 0 0 50 50;" xml:space="preserve">
<style type="text/css">
	.st0{fill:#EC0000;}
</style>
<g id="Layer_1_1_">
</g>
<g id="Layer_2">
	<g>
		<path class="st0" d="M18.2,36.7c0-2.9-0.7-22.6-0.3-22.4L2.6,38.9c0,0-2,1.6-0.8,2.4c1.1,0.8,14-2,14-2S18.2,39.6,18.2,36.7z"/>
		<path class="st0" d="M48.6,33.6c-0.3-2-2.6-12.4-12-21.5S25.2,2.2,22.2,1.1s-3.6-1.6-3.4-0.2c0,0,0.2,1.3,1.3,2.9s4.2,12.2,3.1,21
			s-2.3,13-2.3,13s-0.8,1.8,3.6,1.8s11.5-0.2,15-0.8c3.4-0.7,8.1-2.3,8.1-2.3S48.9,35.7,48.6,33.6z"/>
		<path class="st0" d="M39.1,41.5c-4.6,0-30.6-0.3-30.6-0.3v7.3c0,0-0.8,1.5,3.4,1.5s21,0,21,0s3.9-0.8,6.2-3.3
			c2.3-2.4,2.9-3.4,2.9-3.4S43.7,41.5,39.1,41.5z"/>
	</g>
</g>
</svg>
