<?xml version="1.0" encoding="utf-8"?>
<!-- Generator: Adobe Illustrator 19.2.1, SVG Export Plug-In . SVG Version: 6.00 Build 0)  -->
<svg version="1.1" id="Layer_1" xmlns="http://www.w3.org/2000/svg" xmlns:xlink="http://www.w3.org/1999/xlink" x="0px" y="0px"
	 viewBox="0 0 30 30" style="enable-background:new 0 0 30 30;" xml:space="preserve">
<style type="text/css">
	.st0{fill:#EC0000;}
</style>
<path class="st0" d="M14.9,30c5.5,0,10.6-2.2,14.3-5.7c-0.9-0.6-2.2-1.2-3.9-1.9c-2-0.7-3.5-1.4-4.3-2.3c-0.7-0.7-1.2-1.7-1.2-3.2
	c0-0.4,0-0.7,0.1-0.9c0.1-0.1,0.3-0.4,0.4-0.6c0.1-0.3,0.4-0.4,0.6-0.9c0.3-0.3,0.4-0.9,0.6-1.6c0-0.3,0.1-0.4,0.3-0.6
	c0.1-0.1,0.3-0.1,0.4-0.3c0.1-0.1,0.3-0.3,0.4-0.6c0.1-0.3,0.3-0.7,0.3-1.4c0-0.3,0-0.4-0.1-0.7c0-0.1-0.1-0.3-0.3-0.4
	c-0.1-0.1-0.1-0.3-0.3-0.3c0-0.3,0.1-0.6,0.1-1c0-0.3,0.1-0.6,0.1-0.9s0.1-0.6,0.1-1c0-0.4,0-0.9-0.1-1.6c-0.1-0.6-0.4-1.3-1-1.9
	c-0.4-0.6-1.2-1.2-2-1.6C18.6,0.3,17.5,0,16,0c-0.1,0-0.3,0-0.3,0c-0.1,0-0.3,0-0.3,0C14,0,12.8,0.3,12,0.7c-0.9,0.4-1.6,1-2,1.6
	c-0.4,0.6-0.9,1.2-1,1.9C8.8,4.8,8.8,5.4,8.8,5.8c0,0.3,0.1,0.7,0.1,1c0,0.3,0.1,0.6,0.1,0.9c0.1,0.3,0.1,0.7,0.1,1
	C9.1,8.7,9.1,8.8,8.9,9C8.8,9.1,8.8,9.3,8.6,9.4c0,0.1-0.1,0.4-0.1,0.7c0,0.7,0.1,1.2,0.3,1.4c0.1,0.3,0.3,0.4,0.4,0.6
	c0.1,0.1,0.3,0.1,0.4,0.3c0.1,0.1,0.3,0.3,0.3,0.6c0.1,0.7,0.3,1.3,0.6,1.6c0.3,0.3,0.4,0.6,0.6,0.9c0.1,0.3,0.3,0.4,0.4,0.6
	c0.1,0.1,0.1,0.4,0.1,0.9c0,1.3-0.4,2.3-1.2,3.2c-0.7,0.7-2.2,1.4-4.3,2.3c-2,0.7-3.6,1.4-4.5,2.2c-0.3,0.3-0.6,0.6-0.9,0.7
	C5.1,28.3,9.8,30,14.9,30z"/>
</svg>
