<?xml version="1.0" encoding="utf-8"?>
<!-- Generator: Adobe Illustrator 19.2.1, SVG Export Plug-In . SVG Version: 6.00 Build 0)  -->
<svg version="1.1" id="Layer_1" xmlns="http://www.w3.org/2000/svg" xmlns:xlink="http://www.w3.org/1999/xlink" x="0px" y="0px"
	 viewBox="0 0 50 50" style="enable-background:new 0 0 50 50;" xml:space="preserve">
<style type="text/css">
	.st0{fill:#EC0000;}
</style>
<g id="Layer_1_1_">
</g>
<g id="Layer_2">
	<g>
		<circle class="st0" cx="10.5" cy="33.6" r="3.5"/>
		<circle class="st0" cx="41.6" cy="33.6" r="3.5"/>
		<path class="st0" d="M43.5,21.6h-7c0,0-6.6-6.5-7.6-7.6c-1-1.1-2.7-1.1-2.9-1.1s-7.2,0-9.4,0s-3.1,1.4-3.1,1.4l-6.9,7.2H2.7
			C0,21.5,0,23.2,0,23.2s0,5.2,0,7.7s2.1,2.4,2.1,2.4s2.2,0,2.4,0c0,0-0.4-6,6-6s6.6,6.2,6.6,6.2h18.3c0,0,0.1-5.9,5.9-5.9
			c5.9,0,5.3,5.6,5.3,5.6s0.4,0,1.8,0c1.4,0,1.5-1.8,1.5-1.8v-4.8C50.1,21.8,43.5,21.6,43.5,21.6z M30.6,21.3c-0.8,0-18,0-18,0
			s-1.1,0-0.4-0.8l2.8-3.9c0,0,0.7-1,1.4-1c0.7,0,9.6,0,9.6,0s1-0.1,2,0.8c1,1,3.2,3.5,3.2,3.5C31.5,20.4,31.9,21.3,30.6,21.3z"/>
	</g>
</g>
</svg>
