<?xml version="1.0" encoding="utf-8"?>
<!-- Generator: Adobe Illustrator 19.2.1, SVG Export Plug-In . SVG Version: 6.00 Build 0)  -->
<svg version="1.1" id="Layer_1" xmlns="http://www.w3.org/2000/svg" xmlns:xlink="http://www.w3.org/1999/xlink" x="0px" y="0px"
	 viewBox="0 0 50 50" style="enable-background:new 0 0 50 50;" xml:space="preserve">
<style type="text/css">
	.st0{fill:#EC0000;}
</style>
<g id="Layer_1_1_">
</g>
<g id="Layer_2">
	<g>
		<path class="st0" d="M26,30.4c-2.9,0-5.1,2.4-5.1,5.1c0,2.9,2.4,5.1,5.1,5.1c2.9,0,5.1-2.4,5.1-5.1C31.2,32.7,28.8,30.4,26,30.4z
			 M26,38.6c-1.7,0-2.9-1.4-2.9-2.9s1.4-2.9,2.9-2.9s2.9,1.4,2.9,2.9S27.7,38.6,26,38.6z"/>
		<path class="st0" d="M49.4,34.3c-1.3,0-7.2,0-7.2,0V13.7c0,0,0.7-4.3-2.9-4.3c-3.6,0-36.7,0-36.7,0S0,9.5,0,11.4v20.7
			c0,0,0.8,4.5,4.2,4.5c2.6,0,10.3,0,13.4,0c0-4.6,3.8-8.2,8.4-8.2s8.2,3.6,8.4,8.2h15.3C49.5,36.8,50.7,34.3,49.4,34.3z M22.7,22.8
			H7v-6.1h15.7V22.8z M38.4,22.8H28.3v-6.1h10.2V22.8z"/>
	</g>
</g>
</svg>
